<mxfile host="app.diagrams.net" modified="2021-01-20T10:38:03.916Z" agent="5.0 (Macintosh; Intel Mac OS X 10_13_6) AppleWebKit/537.36 (KHTML, like Gecko) Chrome/87.0.4280.141 Safari/537.36" etag="zPR1582ckgG9e4ggbAJu" version="14.2.5" type="github">
  <diagram id="ZgehiGRjidCuQ3ADT8D0" name="Page-1">
    <mxGraphModel dx="946" dy="459" grid="1" gridSize="10" guides="1" tooltips="1" connect="1" arrows="1" fold="1" page="1" pageScale="1" pageWidth="827" pageHeight="1169" math="0" shadow="0">
      <root>
        <mxCell id="0" />
        <mxCell id="1" parent="0" />
        <mxCell id="LGFnTv-W5vBcdsDXNJbK-38" value="" style="rounded=0;whiteSpace=wrap;html=1;shadow=0;dashed=1;sketch=1;gradientColor=none;fontFamily=Comic Sans MS;" vertex="1" parent="1">
          <mxGeometry x="60" y="130" width="740" height="550" as="geometry" />
        </mxCell>
        <mxCell id="LGFnTv-W5vBcdsDXNJbK-8" value="" style="rounded=0;whiteSpace=wrap;html=1;sketch=1;shadow=0;" vertex="1" parent="1">
          <mxGeometry x="530" y="470" width="250" height="170" as="geometry" />
        </mxCell>
        <mxCell id="LGFnTv-W5vBcdsDXNJbK-2" value="IVIP" style="rounded=0;whiteSpace=wrap;html=1;sketch=1;fontFamily=Comic Sans MS;" vertex="1" parent="1">
          <mxGeometry x="250" y="150" width="140" height="70" as="geometry" />
        </mxCell>
        <mxCell id="LGFnTv-W5vBcdsDXNJbK-3" value="IIP" style="rounded=0;whiteSpace=wrap;html=1;sketch=1;fontFamily=Comic Sans MS;" vertex="1" parent="1">
          <mxGeometry x="440" y="150" width="140" height="70" as="geometry" />
        </mxCell>
        <mxCell id="LGFnTv-W5vBcdsDXNJbK-4" value="... ..." style="rounded=0;whiteSpace=wrap;html=1;sketch=1;fontFamily=Comic Sans MS;" vertex="1" parent="1">
          <mxGeometry x="620" y="150" width="140" height="70" as="geometry" />
        </mxCell>
        <mxCell id="LGFnTv-W5vBcdsDXNJbK-5" value="&lt;font style=&quot;font-size: 22px&quot;&gt;Gaea&lt;/font&gt;" style="rounded=0;whiteSpace=wrap;html=1;sketch=1;fontFamily=Comic Sans MS;fillColor=#fff2cc;strokeColor=#d6b656;" vertex="1" parent="1">
          <mxGeometry x="240" y="290" width="540" height="90" as="geometry" />
        </mxCell>
        <mxCell id="LGFnTv-W5vBcdsDXNJbK-6" value="" style="rounded=0;whiteSpace=wrap;html=1;sketch=1;fontFamily=Comic Sans MS;" vertex="1" parent="1">
          <mxGeometry x="240" y="470" width="240" height="170" as="geometry" />
        </mxCell>
        <mxCell id="LGFnTv-W5vBcdsDXNJbK-7" value="k8s" style="rounded=0;whiteSpace=wrap;html=1;sketch=1;fontFamily=Comic Sans MS;" vertex="1" parent="1">
          <mxGeometry x="550" y="486" width="86" height="60" as="geometry" />
        </mxCell>
        <mxCell id="LGFnTv-W5vBcdsDXNJbK-9" value="docker" style="rounded=0;whiteSpace=wrap;html=1;sketch=1;fontFamily=Comic Sans MS;" vertex="1" parent="1">
          <mxGeometry x="670" y="486" width="86" height="60" as="geometry" />
        </mxCell>
        <mxCell id="LGFnTv-W5vBcdsDXNJbK-11" value="storage" style="rounded=0;whiteSpace=wrap;html=1;sketch=1;fontFamily=Comic Sans MS;" vertex="1" parent="1">
          <mxGeometry x="550" y="565" width="86" height="60" as="geometry" />
        </mxCell>
        <mxCell id="LGFnTv-W5vBcdsDXNJbK-12" value="minio" style="rounded=0;whiteSpace=wrap;html=1;sketch=1;fontFamily=Comic Sans MS;" vertex="1" parent="1">
          <mxGeometry x="674" y="565" width="86" height="60" as="geometry" />
        </mxCell>
        <mxCell id="LGFnTv-W5vBcdsDXNJbK-13" value="PaddlePaddle" style="rounded=0;whiteSpace=wrap;html=1;sketch=1;fontFamily=Comic Sans MS;" vertex="1" parent="1">
          <mxGeometry x="260" y="486" width="86" height="60" as="geometry" />
        </mxCell>
        <mxCell id="LGFnTv-W5vBcdsDXNJbK-14" value="Pytorch" style="rounded=0;whiteSpace=wrap;html=1;sketch=1;fontFamily=Comic Sans MS;" vertex="1" parent="1">
          <mxGeometry x="378" y="486" width="86" height="60" as="geometry" />
        </mxCell>
        <mxCell id="LGFnTv-W5vBcdsDXNJbK-15" value="ICVP" style="rounded=0;whiteSpace=wrap;html=1;sketch=1;fontFamily=Comic Sans MS;" vertex="1" parent="1">
          <mxGeometry x="260" y="565" width="86" height="60" as="geometry" />
        </mxCell>
        <mxCell id="LGFnTv-W5vBcdsDXNJbK-16" value="MXNet" style="rounded=0;whiteSpace=wrap;html=1;sketch=1;fontFamily=Comic Sans MS;" vertex="1" parent="1">
          <mxGeometry x="378" y="565" width="86" height="60" as="geometry" />
        </mxCell>
        <mxCell id="LGFnTv-W5vBcdsDXNJbK-18" value="" style="html=1;shadow=0;dashed=0;align=center;verticalAlign=middle;shape=mxgraph.arrows2.arrow;dy=0.6;dx=40;direction=north;notch=0;sketch=1;fontFamily=Comic Sans MS;" vertex="1" parent="1">
          <mxGeometry x="650" y="390" width="30" height="70" as="geometry" />
        </mxCell>
        <mxCell id="LGFnTv-W5vBcdsDXNJbK-19" value="&amp;nbsp; &amp;nbsp; &amp;nbsp; &amp;nbsp; &amp;nbsp; &amp;nbsp; &amp;nbsp; &amp;nbsp; Pipeline" style="rounded=0;whiteSpace=wrap;html=1;shadow=0;sketch=1;fontFamily=Comic Sans MS;opacity=50;dashed=1;align=left;" vertex="1" parent="1">
          <mxGeometry x="243" y="420" width="237" height="40" as="geometry" />
        </mxCell>
        <mxCell id="LGFnTv-W5vBcdsDXNJbK-17" value="" style="html=1;shadow=0;dashed=0;align=center;verticalAlign=middle;shape=mxgraph.arrows2.arrow;dy=0.6;dx=40;direction=north;notch=0;sketch=1;fontFamily=Comic Sans MS;" vertex="1" parent="1">
          <mxGeometry x="350" y="390" width="30" height="70" as="geometry" />
        </mxCell>
        <mxCell id="LGFnTv-W5vBcdsDXNJbK-20" value="Job" style="text;html=1;strokeColor=none;fillColor=none;align=center;verticalAlign=middle;whiteSpace=wrap;rounded=0;shadow=0;dashed=1;sketch=1;fontFamily=Comic Sans MS;opacity=50;" vertex="1" parent="1">
          <mxGeometry x="600" y="430" width="50" height="20" as="geometry" />
        </mxCell>
        <mxCell id="LGFnTv-W5vBcdsDXNJbK-28" value="" style="html=1;shadow=0;dashed=0;align=center;verticalAlign=middle;shape=mxgraph.arrows2.stylisedArrow;dy=0.6;dx=40;notch=15;feather=0.4;sketch=1;gradientColor=none;fontFamily=Comic Sans MS;" vertex="1" parent="1">
          <mxGeometry x="150" y="425" width="80" height="30" as="geometry" />
        </mxCell>
        <mxCell id="LGFnTv-W5vBcdsDXNJbK-29" value="" style="html=1;shadow=0;dashed=0;align=center;verticalAlign=middle;shape=mxgraph.arrows2.stylisedArrow;dy=0.6;dx=40;notch=15;feather=0.4;sketch=1;gradientColor=none;fontFamily=Comic Sans MS;" vertex="1" parent="1">
          <mxGeometry x="150" y="170" width="80" height="30" as="geometry" />
        </mxCell>
        <mxCell id="LGFnTv-W5vBcdsDXNJbK-30" value="Algorithm integration" style="text;html=1;strokeColor=none;fillColor=none;align=center;verticalAlign=middle;whiteSpace=wrap;rounded=0;shadow=0;dashed=1;sketch=1;fontFamily=Comic Sans MS;" vertex="1" parent="1">
          <mxGeometry x="160" y="390" width="60" height="20" as="geometry" />
        </mxCell>
        <mxCell id="LGFnTv-W5vBcdsDXNJbK-31" value="Product entry" style="text;html=1;strokeColor=none;fillColor=none;align=center;verticalAlign=middle;whiteSpace=wrap;rounded=0;shadow=0;dashed=1;sketch=1;fontFamily=Comic Sans MS;" vertex="1" parent="1">
          <mxGeometry x="150" y="140" width="60" height="20" as="geometry" />
        </mxCell>
        <object label="User" id="LGFnTv-W5vBcdsDXNJbK-32">
          <mxCell style="shape=umlActor;verticalLabelPosition=bottom;verticalAlign=top;html=1;outlineConnect=0;shadow=0;dashed=1;sketch=1;gradientColor=none;fontFamily=Comic Sans MS;" vertex="1" parent="1">
            <mxGeometry x="110" y="140" width="30" height="60" as="geometry" />
          </mxCell>
        </object>
        <mxCell id="LGFnTv-W5vBcdsDXNJbK-33" value="&lt;p style=&quot;line-height: 120%&quot;&gt;model train、test、&amp;nbsp; &amp;nbsp; &amp;nbsp; &amp;nbsp; &amp;nbsp; &amp;nbsp; online、composition&lt;/p&gt;" style="rounded=0;whiteSpace=wrap;html=1;shadow=0;dashed=1;sketch=1;gradientColor=none;fontFamily=Comic Sans MS;opacity=50;" vertex="1" parent="1">
          <mxGeometry x="250" y="240" width="510" height="40" as="geometry" />
        </mxCell>
        <mxCell id="LGFnTv-W5vBcdsDXNJbK-34" value="" style="html=1;shadow=0;dashed=0;align=center;verticalAlign=middle;shape=mxgraph.arrows2.arrow;dy=0.6;dx=40;direction=north;notch=0;sketch=1;fontFamily=Comic Sans MS;" vertex="1" parent="1">
          <mxGeometry x="307.5" y="220" width="25" height="60" as="geometry" />
        </mxCell>
        <mxCell id="LGFnTv-W5vBcdsDXNJbK-35" value="" style="html=1;shadow=0;dashed=0;align=center;verticalAlign=middle;shape=mxgraph.arrows2.arrow;dy=0.6;dx=40;direction=north;notch=0;sketch=1;fontFamily=Comic Sans MS;" vertex="1" parent="1">
          <mxGeometry x="497.5" y="220" width="25" height="60" as="geometry" />
        </mxCell>
        <mxCell id="LGFnTv-W5vBcdsDXNJbK-36" value="" style="html=1;shadow=0;dashed=0;align=center;verticalAlign=middle;shape=mxgraph.arrows2.arrow;dy=0.6;dx=40;direction=north;notch=0;sketch=1;fontFamily=Comic Sans MS;" vertex="1" parent="1">
          <mxGeometry x="680" y="220" width="25" height="60" as="geometry" />
        </mxCell>
        <object label="Algorithm Engineer" id="LGFnTv-W5vBcdsDXNJbK-37">
          <mxCell style="shape=umlActor;verticalLabelPosition=bottom;verticalAlign=top;html=1;outlineConnect=0;shadow=0;dashed=1;sketch=1;gradientColor=none;fontFamily=Comic Sans MS;" vertex="1" parent="1">
            <mxGeometry x="110" y="400" width="30" height="60" as="geometry" />
          </mxCell>
        </object>
      </root>
    </mxGraphModel>
  </diagram>
</mxfile>
